# xmcd
#
# Track frame offsets: 
#        187
#        10997
#        22845
#        33975
#        43997
#        56350
#        68445
#        78525
#        90880
#        101285
#        112110
#        123347
#
# Disc length: 1830 seconds
#
# Revision: 3
# Processed by: cddbd v1.5.2PL0 Copyright (c) Steve Scherf et al.
# Submitted via: ExactAudioCopy v1.1
#
DISCID=8707240c
DTITLE=Buck Owens - Buck Owens All-Time Greatest Hits Volume 1
DYEAR=1990
DGENRE=Country
TTITLE0=Act Naturally
TTITLE1=Streets Of Bakersfield
TTITLE2=Together Again
TTITLE3=Before You Go
TTITLE4=Made In Japan
TTITLE5=Foolin' Around
TTITLE6=I've Got A Tiger By The Tail
TTITLE7=Under Your Spell Again
TTITLE8=Think Of Me
TTITLE9=Who's Gonna Mow Your Grass
TTITLE10=Excuse Me (I Think I've Got A Heartache)
TTITLE11=Big In Vegas
EXTD=
EXTT0=
EXTT1=
EXTT2=
EXTT3=
EXTT4=
EXTT5=
EXTT6=
EXTT7=
EXTT8=
EXTT9=
EXTT10=
EXTT11=
PLAYORDER=
